<svg xmlns="http://www.w3.org/2000/svg" viewBox="0 0 200 200">
<path fill-rule="evenodd" d="M31.52,192.83 L19.48,191.98 L13.75,189.45 L8.60,185.23 L3.72,176.37 L3.72,161.18 L6.59,152.74 L14.90,138.82 L10.03,151.05 L8.31,164.56 L10.03,171.31 L16.05,177.64 L24.64,180.17 L33.81,179.32 L44.13,175.95 L60.74,166.67 L77.36,154.01 L93.98,137.97 L111.17,118.57 L136.68,83.54 L163.04,36.29 L152.44,24.05 L153.01,22.36 L197.42,10.13 L192.55,69.62 L181.09,56.96 L149.57,104.22 L128.37,129.54 L108.31,149.79 L88.25,166.67 L67.62,180.17 L46.99,189.45 L31.52,192.83 Z M32.09,170.89 L32.66,170.04 L34.38,170.04 L37.82,167.51 L40.97,163.71 L40.97,162.87 L43.27,158.65 L43.84,156.12 L44.99,154.43 L46.13,150.21 L47.28,148.52 L47.85,145.99 L49.00,144.30 L49.57,141.77 L50.72,140.08 L51.29,137.55 L52.44,135.86 L55.30,127.43 L56.45,125.74 L57.59,121.52 L58.74,119.83 L59.89,115.61 L62.75,109.70 L63.90,105.49 L66.76,99.58 L67.34,97.05 L70.20,91.98 L70.20,91.14 L74.50,85.65 L75.07,85.65 L77.65,89.45 L77.65,90.30 L79.94,94.51 L83.38,104.64 L84.53,106.33 L86.25,112.24 L87.39,113.92 L88.54,118.14 L89.68,119.83 L91.98,127.43 L93.41,129.54 L93.98,129.54 L96.28,126.16 L96.85,126.16 L98.57,123.63 L99.14,123.63 L100.86,121.10 L101.43,121.10 L103.15,118.57 L103.72,118.57 L114.33,104.64 L112.61,101.27 L111.46,97.05 L110.32,95.36 L108.02,87.76 L106.88,86.08 L105.16,80.17 L104.01,78.48 L102.29,72.57 L101.15,70.89 L98.28,62.45 L94.84,56.54 L94.84,55.70 L90.54,50.21 L84.24,45.15 L80.23,44.30 L79.66,43.46 L71.06,43.46 L70.49,44.30 L67.05,45.15 L65.33,46.84 L64.18,46.84 L63.04,48.52 L59.60,51.05 L54.73,58.23 L54.73,59.07 L53.01,61.60 L51.29,66.67 L50.14,68.35 L49.57,70.89 L48.42,72.57 L47.85,75.11 L46.70,76.79 L44.99,82.70 L42.69,86.92 L41.55,91.14 L40.40,92.83 L38.11,99.58 L36.96,101.27 L33.52,111.39 L29.51,119.83 L26.07,129.96 L22.06,138.40 L20.92,142.62 L19.77,144.30 L17.48,151.05 L16.91,159.49 L17.48,160.34 L17.48,162.87 L18.05,164.56 L20.06,167.51 L20.63,167.51 L21.78,169.20 L25.21,170.04 L25.79,170.89 L32.09,170.89 Z M129.51,183.54 L131.81,181.86 L132.95,181.86 L135.24,179.32 L136.96,178.48 L141.83,171.31 L141.83,170.46 L143.55,167.93 L146.42,159.49 L147.56,157.81 L148.71,153.59 L149.86,151.90 L151.00,147.68 L152.15,145.99 L153.30,141.77 L156.16,135.86 L157.31,131.65 L158.45,129.96 L159.60,125.74 L162.46,119.83 L164.18,113.92 L165.33,112.24 L167.62,105.49 L168.77,103.80 L169.91,99.58 L171.06,97.89 L172.21,93.67 L173.35,91.98 L174.50,87.76 L175.64,86.08 L176.79,81.86 L179.66,75.95 L180.23,73.42 L181.38,71.73 L181.09,70.46 L180.23,70.89 L180.23,71.73 L177.36,75.95 L177.36,76.79 L171.63,85.23 L171.63,86.08 L161.03,101.69 L160.17,102.11 L160.17,102.95 L158.74,105.06 L158.17,105.06 L149.00,118.57 L148.42,118.57 L144.99,123.63 L144.41,123.63 L138.11,132.07 L137.54,132.07 L135.24,135.44 L134.67,135.44 L132.95,137.97 L132.38,137.97 L130.66,140.51 L130.09,140.51 L128.37,143.04 L127.79,143.04 L126.07,145.57 L125.50,145.57 L123.78,148.10 L123.21,148.10 L116.91,154.85 L116.33,154.85 L113.47,158.23 L111.75,159.07 L108.88,162.45 L106.88,163.71 L106.88,165.40 L108.02,167.09 L108.60,169.62 L110.32,172.15 L110.32,173.00 L115.19,179.32 L118.62,181.86 L121.49,182.70 L122.06,183.54 L129.51,183.54 Z"/>
</svg>